<svg width="253" height="43" viewBox="0 0 253 43" fill="none" xmlns="http://www.w3.org/2000/svg">
<path d="M58.9 23.24C58.75 23.33 58.66 23.69 58.81 23.93C59.98 25.61 62.11 26.81 64.42 26.87C67.18 26.93 68.77 28.16 68.8 30.89C68.83 33.65 67.15 34.88 64.39 34.88C57.43 34.91 52.54 32.93 52.54 25.1C52.57 17.06 58.48 14.63 65.41 16.19C68.44 16.88 69.37 19.88 68.89 22.43C68.53 24.44 67.24 26.18 65.5 26.18C63.04 26.18 60.85 25.13 59.47 23.21C59.32 23 59.05 23.06 58.9 23.24ZM75.0088 17.09C72.9688 17.09 71.0788 15.59 71.0788 12.92C71.0788 10.43 72.9988 8.75 75.0088 8.75C77.1988 8.75 78.9388 10.85 78.9388 13.01C78.9388 15.23 77.2888 17.09 75.0088 17.09ZM70.9888 32.18C70.4188 28.64 70.4188 24.71 70.9888 21.17C71.1988 19.79 72.4588 18.65 75.0088 18.65C77.4688 18.65 78.6988 19.79 78.9388 21.17C79.5388 24.71 79.5388 28.64 78.9388 32.18C78.6988 33.59 77.4688 34.7 75.0088 34.7C72.4588 34.7 71.1988 33.59 70.9888 32.18ZM89.9587 29.15C89.8987 29.78 89.8687 30.38 89.8087 30.98C89.5687 33.23 88.3387 34.7 85.8487 34.7C83.2987 34.7 81.9787 33.23 81.7387 30.98C81.5287 29 81.4387 26.69 81.3787 24.71V19.34C81.3787 17.18 82.8187 15.74 84.9787 15.74C86.6887 15.74 88.4287 16.22 89.0587 17.57C87.4987 19.46 86.7187 21.65 86.9587 23.99C87.0487 24.71 87.8587 24.65 87.8287 24.05C87.5887 20.99 89.2687 17.78 91.2187 16.61C92.0887 16.1 93.0487 15.74 94.0387 15.74C95.6887 15.74 97.3987 16.28 98.5087 17.51C100.189 19.34 100.309 21.53 100.279 23.93C100.249 26.18 100.039 28.88 99.5587 30.98C99.0487 33.23 97.9087 34.7 95.2987 34.7C92.6587 34.7 91.3087 33.23 91.0387 30.98C90.9787 30.47 90.9187 29.93 90.8887 29.39C90.8887 28.64 90.1687 28.55 89.9587 29.15ZM105.488 33.56C102.788 31.85 101.468 28.73 101.408 25.64C101.348 21.92 102.968 18.2 106.058 16.76C107.558 16.07 109.238 15.74 110.828 15.74C115.088 15.74 118.748 17.84 118.478 22.58C118.328 25.43 116.888 26.75 113.858 27.47C112.298 27.86 109.898 27.74 108.998 26.3C108.848 26.06 108.158 26.06 108.248 26.63C108.368 27.5 109.868 28.7 111.998 28.7C112.388 28.7 112.958 28.58 113.318 28.49C116.018 27.71 117.188 27.68 118.028 30.17C118.688 32.06 117.668 33.47 114.698 34.4C113.258 34.85 112.328 34.91 110.858 34.91C108.938 34.91 107.048 34.55 105.488 33.56ZM109.478 22.31C111.008 21.89 112.268 21.95 113.708 22.25C114.188 22.31 114.458 21.29 113.768 21.17C112.358 20.87 110.738 20.63 109.388 21.2C108.788 21.44 108.998 22.43 109.478 22.31ZM126.291 20.96C126.621 21.02 126.741 20.9 126.921 20.6C128.361 17.96 130.851 16.64 133.881 16.64C137.661 16.64 141.531 18.92 141.531 25.01C141.531 32.69 136.251 34.91 131.091 34.91C123.261 34.91 120.171 31.07 120.081 23.78C120.021 20.36 120.171 16.25 120.501 13.04C120.711 10.82 122.091 9.05 124.641 9.05C127.131 9.05 128.511 10.82 128.721 13.04C128.811 13.88 128.931 16.04 128.961 17.03C127.701 17.78 126.501 19.22 126.021 20.15C125.811 20.54 125.961 20.84 126.291 20.96ZM130.311 25.25C131.511 26.15 132.951 26.69 134.421 26.99C135.081 27.08 135.231 26.03 134.751 25.91C133.311 25.64 132.141 25.19 130.851 24.29C130.431 23.99 129.801 24.86 130.311 25.25ZM142.599 25.76C142.629 19.91 146.469 15.74 152.379 15.74C158.349 15.74 161.199 20.81 161.199 25.76C161.139 30.77 157.629 35.21 152.289 35.21C146.709 35.21 142.599 31.16 142.599 25.76ZM150.999 27.44C150.759 27.89 151.629 28.34 152.049 27.77C152.859 26.57 153.069 24.95 153.099 23.45C153.129 22.76 152.109 22.79 152.079 23.3C151.959 24.77 151.719 26 150.999 27.44ZM162.286 25.76C162.316 19.91 166.156 15.74 172.066 15.74C178.036 15.74 180.886 20.81 180.886 25.76C180.826 30.77 177.316 35.21 171.976 35.21C166.396 35.21 162.286 31.16 162.286 25.76ZM170.686 27.44C170.446 27.89 171.316 28.34 171.736 27.77C172.546 26.57 172.756 24.95 172.786 23.45C172.816 22.76 171.796 22.79 171.766 23.3C171.646 24.77 171.406 26 170.686 27.44ZM190.944 19.79L194.754 16.52C196.014 15.41 197.964 15.56 199.314 17.09C200.574 18.5 200.754 20.48 199.644 21.74C198.954 22.52 198.234 23.3 197.544 23.99C196.674 24.89 195.774 25.55 194.994 25.97C194.484 26.3 194.964 27.02 195.504 26.69L197.214 25.46C198.114 26.48 199.104 27.71 199.944 28.79C201.024 30.17 200.754 32.21 199.314 33.56C197.844 34.97 195.864 35.06 194.634 33.83C193.404 32.6 191.964 31.1 190.734 29.75C190.734 30.02 190.704 30.98 190.674 31.25C190.434 33.32 188.874 34.73 186.654 34.7C184.524 34.7 182.874 33.29 182.754 31.25C182.334 25.01 182.334 18.68 182.754 12.44C182.874 10.43 184.554 9.05 186.684 9.05C188.874 9.05 190.524 10.46 190.674 12.44C190.824 14.9 190.914 17.33 190.944 19.79ZM206.64 17.09C204.6 17.09 202.71 15.59 202.71 12.92C202.71 10.43 204.63 8.75 206.64 8.75C208.83 8.75 210.57 10.85 210.57 13.01C210.57 15.23 208.92 17.09 206.64 17.09ZM202.62 32.18C202.05 28.64 202.05 24.71 202.62 21.17C202.83 19.79 204.09 18.65 206.64 18.65C209.1 18.65 210.33 19.79 210.57 21.17C211.17 24.71 211.17 28.64 210.57 32.18C210.33 33.59 209.1 34.7 206.64 34.7C204.09 34.7 202.83 33.59 202.62 32.18ZM221.59 29.15C221.53 29.78 221.5 30.38 221.44 30.98C221.2 33.23 219.97 34.7 217.48 34.7C214.93 34.7 213.61 33.23 213.37 30.98C213.16 29 213.07 26.69 213.01 24.71V19.34C213.01 17.18 214.45 15.74 216.61 15.74C218.32 15.74 220.06 16.22 220.69 17.57C219.13 19.46 218.35 21.65 218.59 23.99C218.68 24.71 219.49 24.65 219.46 24.05C219.22 20.99 220.9 17.78 222.85 16.61C223.72 16.1 224.68 15.74 225.67 15.74C227.32 15.74 229.03 16.28 230.14 17.51C231.82 19.34 231.94 21.53 231.91 23.93C231.88 26.18 231.67 28.88 231.19 30.98C230.68 33.23 229.54 34.7 226.93 34.7C224.29 34.7 222.94 33.23 222.67 30.98C222.61 30.47 222.55 29.93 222.52 29.39C222.52 28.64 221.8 28.55 221.59 29.15ZM246.089 15.74L247.649 14.3C248.879 13.16 250.439 13.4 251.549 14.72C252.599 16.01 252.599 17.45 251.489 18.68L251.159 19.07C251.129 19.43 251.819 19.82 251.819 22.16C251.819 24.92 250.829 27.74 248.189 29.06C246.839 28.52 245.249 28.13 243.299 28.1C242.549 28.1 242.489 28.94 243.239 28.94C249.419 29.24 252.179 32.66 251.519 35.78C250.949 38.42 247.829 40.85 242.189 40.85C236.219 40.85 233.579 38.21 233.099 35.27C232.709 32.72 233.909 29.9 236.099 28.25C233.969 26.96 233.069 24.17 233.669 21.53C234.359 18.38 237.269 15.41 242.939 15.41C243.929 15.41 244.829 15.53 246.089 15.74ZM242.009 23.51C241.769 23.96 242.639 24.38 243.029 23.84C243.869 22.7 243.989 21.05 244.049 19.58C244.049 18.86 243.089 18.89 243.059 19.4C242.969 20.84 242.699 22.1 242.009 23.51ZM241.769 36.53C241.559 37.01 242.399 37.4 242.759 36.86C243.569 35.72 243.749 34.07 243.809 32.63C243.809 31.94 242.819 31.94 242.789 32.45C242.699 33.89 242.489 35.12 241.769 36.53Z" fill="#EC4899"/>
<rect y="6" width="30" height="30" rx="15" fill="#EC4899"/>
<circle cx="22.5" cy="21.5" r="3.5" fill="#F4F4F4"/>
<circle cx="6.5" cy="21.5" r="3.5" fill="#F4F4F4"/>
<circle cx="14.5" cy="13.5" r="3.5" fill="#F4F4F4"/>
<circle cx="14.5" cy="29.5" r="3.5" fill="#F4F4F4"/>
<mask id="mask0_88_74" style="mask-type:alpha" maskUnits="userSpaceOnUse" x="23" y="28" width="25" height="9">
<path d="M23.4603 36.2063C27.0661 35.0533 32 29.6014 32 28L48 29V36.6867C38.3177 37.0069 19.8545 37.3593 23.4603 36.2063Z" fill="#D9D9D9"/>
</mask>
<g mask="url(#mask0_88_74)">
<path d="M44.4596 36C46.1164 36 47.4596 34.6569 47.4596 33C47.4596 31.3431 46.1164 30 44.4596 30V36ZM23.4596 36L44.4596 36V30L23.4596 30V36Z" fill="#EC4899"/>
</g>
</svg>
